<?xml version="1.0" standalone="no"?>
<!DOCTYPE svg PUBLIC "-//W3C//DTD SVG 20010904//EN"
 "http://www.w3.org/TR/2001/REC-SVG-20010904/DTD/svg10.dtd">
<svg version="1.0" xmlns="http://www.w3.org/2000/svg"
 width="400.000000pt" height="400.000000pt" viewBox="0 0 400.000000 400.000000"
 preserveAspectRatio="xMidYMid meet">
<metadata>
Created by potrace 1.11, written by Peter Selinger 2001-2013
</metadata>
<g transform="translate(0.000000,400.000000) scale(0.100000,-0.100000)"
fill="#000000" stroke="none">
<path d="M1779 3916 c-2 -2 -26 -6 -54 -10 -266 -32 -515 -149 -690 -323 -193
-191 -260 -381 -232 -655 29 -276 215 -498 563 -672 146 -73 149 -74 714 -269
503 -174 652 -239 828 -360 183 -126 265 -288 279 -551 5 -93 3 -124 -11 -168
-72 -220 -374 -468 -711 -583 -170 -58 -223 -65 -455 -60 -113 2 -216 6 -230
9 -14 2 -47 7 -75 11 -258 31 -471 101 -630 206 -74 50 -95 59 -120 55 -59
-11 -90 -73 -65 -128 26 -57 228 -172 396 -227 121 -39 295 -76 409 -87 33 -3
67 -7 75 -10 34 -12 429 -15 496 -4 38 7 83 14 99 17 59 10 219 65 312 109
308 142 542 349 643 567 50 105 63 177 57 302 -6 110 -8 130 -21 195 -18 84
-74 209 -127 284 -53 74 -152 166 -244 228 -182 122 -382 207 -910 388 -333
113 -394 135 -489 174 -287 119 -473 260 -549 417 -47 96 -57 144 -52 254 12
310 208 542 551 653 141 46 220 57 429 57 454 0 624 -37 871 -185 108 -65 141
-69 182 -24 46 52 25 108 -64 164 -200 126 -378 185 -644 215 -64 7 -525 17
-531 11z"/>
<path d="M3280 3426 c-19 -40 -35 -56 -72 -76 l-47 -25 73 -70 c131 -127 220
-253 317 -451 165 -339 209 -554 185 -894 -4 -58 -9 -116 -11 -130 -11 -82
-22 -146 -39 -227 -9 -44 -70 -228 -77 -233 -4 -3 -1 -41 6 -85 18 -108 13
-286 -9 -348 -10 -27 -16 -51 -14 -53 3 -2 27 31 56 74 162 245 272 543 309
844 10 80 10 459 1 517 -21 121 -73 328 -97 386 -5 11 -21 52 -37 90 -68 172
-197 390 -308 520 -74 87 -157 174 -186 194 l-25 18 -25 -51z"/>
<path d="M592 3382 c-12 -15 -45 -52 -72 -82 -211 -230 -403 -626 -456 -940
-2 -14 -6 -34 -9 -46 -15 -66 -20 -151 -20 -324 0 -171 4 -237 21 -324 2 -12
6 -34 9 -51 50 -271 191 -585 368 -820 59 -78 185 -215 196 -215 3 1 15 20 27
43 14 29 33 48 60 62 21 11 41 21 43 22 2 2 -22 31 -55 65 -33 35 -76 83 -96
108 -162 200 -325 542 -363 760 -27 155 -33 241 -30 415 2 172 8 227 39 360
11 50 60 195 82 243 13 29 24 55 24 58 0 14 105 213 139 262 32 47 40 69 45
122 8 96 21 157 50 235 14 38 24 70 23 72 -1 1 -12 -10 -25 -25z"/>
</g>
</svg>
